<svg xmlns="http://www.w3.org/2000/svg" viewBox="0 0 512 512">
  <rect width="512" height="512" fill="#0f172a"/>
  <circle cx="256" cy="256" r="126" fill="none" stroke="#ffffff" stroke-width="22"/>
  <circle cx="256" cy="256" r="88" fill="none" stroke="#ffffff" stroke-opacity="0.22" stroke-width="7"/>
  <path d="M238 229c-18-23-58-7-51 24 6 26 36 46 69 70 33-24 63-44 69-70 7-31-33-47-51-24l-18 22-18-22Z" fill="#34d399"/>
  <path d="M104 139v92M84 139v58c0 20 9 32 20 32s20-12 20-32v-58M104 229v144" fill="none" stroke="#ffffff" stroke-width="18" stroke-linecap="round" stroke-linejoin="round"/>
  <path d="M407 139c-34 15-40 79-8 99v135M399 238h13" fill="none" stroke="#ffffff" stroke-width="18" stroke-linecap="round" stroke-linejoin="round"/>
</svg>
